<svg xmlns="http://www.w3.org/2000/svg" xmlns:xlink="http://www.w3.org/1999/xlink" contentStyleType="text/css" data-diagram-type="DESCRIPTION" height="1399px" preserveAspectRatio="none" style="width:1082px;height:1399px;background:#FFFFFF;" version="1.1" viewBox="0 0 1082 1399" width="1082px" zoomAndPan="magnify"><defs/><g><!--cluster ??????? ????? ????????--><g class="cluster" data-entity="&#1057;&#1080;&#1089;&#1090;&#1077;&#1084;&#1072; &#1091;&#1095;&#1105;&#1090;&#1072; &#1076;&#1077;&#1092;&#1077;&#1082;&#1090;&#1086;&#1074;" data-source-line="12" data-uid="ent0009" id="cluster_&#1057;&#1080;&#1089;&#1090;&#1077;&#1084;&#1072; &#1091;&#1095;&#1105;&#1090;&#1072; &#1076;&#1077;&#1092;&#1077;&#1082;&#1090;&#1086;&#1074;"><rect fill="none" height="1386" rx="2.5" ry="2.5" style="stroke:#181818;stroke-width:1;" width="832" x="244" y="7"/><text fill="#000000" font-family="sans-serif" font-size="14" font-weight="bold" lengthAdjust="spacing" textLength="202.7061" x="558.647" y="21.9951">&#1057;&#1080;&#1089;&#1090;&#1077;&#1084;&#1072; &#1091;&#1095;&#1105;&#1090;&#1072; &#1076;&#1077;&#1092;&#1077;&#1082;&#1090;&#1086;&#1074;</text></g><!--entity UC1--><g class="entity" data-entity="UC1" data-source-line="13" data-uid="ent0010" id="entity_UC1"><ellipse cx="458.764" cy="260.9528" fill="#F1F1F1" rx="142.764" ry="30.9528" style="stroke:#181818;stroke-width:0.5;"/><text fill="#000000" font-family="sans-serif" font-size="14" lengthAdjust="spacing" textLength="267.3877" x="325.0701" y="265.6012">&#1047;&#1072;&#1088;&#1077;&#1075;&#1080;&#1089;&#1090;&#1088;&#1080;&#1088;&#1086;&#1074;&#1072;&#1090;&#1100;&#1089;&#1103; &#1082;&#1072;&#1082; &#1076;&#1086;&#1089;&#1090;&#1091;&#1087;&#1085;&#1099;&#1081;</text></g><!--entity UC2--><g class="entity" data-entity="UC2" data-source-line="14" data-uid="ent0011" id="entity_UC2"><ellipse cx="459.119" cy="351.2238" fill="#F1F1F1" rx="109.119" ry="24.2238" style="stroke:#181818;stroke-width:0.5;"/><text fill="#000000" font-family="sans-serif" font-size="14" lengthAdjust="spacing" textLength="195.9727" x="361.1327" y="355.8722">&#1047;&#1072;&#1088;&#1077;&#1075;&#1080;&#1089;&#1090;&#1088;&#1080;&#1088;&#1086;&#1074;&#1072;&#1090;&#1100; &#1076;&#1077;&#1092;&#1077;&#1082;&#1090;</text></g><!--entity UC3--><g class="entity" data-entity="UC3" data-source-line="15" data-uid="ent0012" id="entity_UC3"><ellipse cx="458.8168" cy="70.1634" fill="#F1F1F1" rx="128.8168" ry="28.1634" style="stroke:#181818;stroke-width:0.5;"/><text fill="#000000" font-family="sans-serif" font-size="14" lengthAdjust="spacing" textLength="238.0752" x="339.7792" y="74.8118">&#1047;&#1072;&#1092;&#1080;&#1082;&#1089;&#1080;&#1088;&#1086;&#1074;&#1072;&#1090;&#1100; &#1085;&#1072;&#1095;&#1072;&#1083;&#1086; &#1088;&#1077;&#1084;&#1086;&#1085;&#1090;&#1072;</text></g><!--entity UC4--><g class="entity" data-entity="UC4" data-source-line="16" data-uid="ent0013" id="entity_UC4"><ellipse cx="458.8522" cy="164.1704" fill="#F1F1F1" rx="141.3522" ry="30.6704" style="stroke:#181818;stroke-width:0.5;"/><text fill="#000000" font-family="sans-serif" font-size="14" lengthAdjust="spacing" textLength="264.4346" x="326.6349" y="168.8189">&#1047;&#1072;&#1092;&#1080;&#1082;&#1089;&#1080;&#1088;&#1086;&#1074;&#1072;&#1090;&#1100; &#1086;&#1082;&#1086;&#1085;&#1095;&#1072;&#1085;&#1080;&#1077; &#1088;&#1077;&#1084;&#1086;&#1085;&#1090;&#1072;</text></g><!--entity UC5--><g class="entity" data-entity="UC5" data-source-line="17" data-uid="ent0014" id="entity_UC5"><ellipse cx="459.2299" cy="436.146" fill="#F1F1F1" rx="116.2299" ry="25.646" style="stroke:#181818;stroke-width:0.5;"/><text fill="#000000" font-family="sans-serif" font-size="14" lengthAdjust="spacing" textLength="211.292" x="353.5839" y="440.7944">&#1053;&#1072;&#1079;&#1085;&#1072;&#1095;&#1080;&#1090;&#1100; &#1088;&#1077;&#1084;&#1086;&#1085;&#1090; &#1088;&#1072;&#1073;&#1086;&#1095;&#1077;&#1084;&#1091;</text></g><!--entity UC6--><g class="entity" data-entity="UC6" data-source-line="18" data-uid="ent0015" id="entity_UC6"><ellipse cx="458.7802" cy="728.856" fill="#F1F1F1" rx="142.2802" ry="30.856" style="stroke:#181818;stroke-width:0.5;"/><text fill="#000000" font-family="sans-serif" font-size="14" lengthAdjust="spacing" textLength="266.376" x="325.5922" y="733.5045">&#1055;&#1088;&#1086;&#1089;&#1084;&#1086;&#1090;&#1088;&#1077;&#1090;&#1100; &#1089;&#1090;&#1072;&#1090;&#1091;&#1089; &#1088;&#1077;&#1084;&#1086;&#1085;&#1090;&#1085;&#1099;&#1093; &#1079;&#1086;&#1085;</text></g><!--entity UC7--><g class="entity" data-entity="UC7" data-source-line="19" data-uid="ent0016" id="entity_UC7"><ellipse cx="459.1443" cy="628.0289" fill="#F1F1F1" rx="163.1443" ry="35.0289" style="stroke:#181818;stroke-width:0.5;"/><text fill="#000000" font-family="sans-serif" font-size="14" lengthAdjust="spacing" textLength="309.75" x="304.2693" y="632.6773">&#1053;&#1072;&#1087;&#1088;&#1072;&#1074;&#1080;&#1090;&#1100; &#1072;&#1074;&#1090;&#1086;&#1084;&#1086;&#1073;&#1080;&#1083;&#1100; &#1074; &#1088;&#1077;&#1084;&#1086;&#1085;&#1090;&#1085;&#1091;&#1102; &#1079;&#1086;&#1085;&#1091;</text></g><!--entity UC8--><g class="entity" data-entity="UC8" data-source-line="20" data-uid="ent0017" id="entity_UC8"><ellipse cx="459.0992" cy="824.8198" fill="#F1F1F1" rx="137.0992" ry="29.8198" style="stroke:#181818;stroke-width:0.5;"/><text fill="#000000" font-family="sans-serif" font-size="14" lengthAdjust="spacing" textLength="255.5205" x="331.339" y="829.4683">&#1055;&#1086;&#1083;&#1091;&#1095;&#1080;&#1090;&#1100; &#1089;&#1074;&#1086;&#1076;&#1085;&#1099;&#1081; &#1086;&#1090;&#1095;&#1105;&#1090; &#1087;&#1086; &#1089;&#1084;&#1077;&#1085;&#1077;</text></g><!--entity UC9--><g class="entity" data-entity="UC9" data-source-line="21" data-uid="ent0018" id="entity_UC9"><ellipse cx="459.1056" cy="932.2211" fill="#F1F1F1" rx="199.1056" ry="42.2211" style="stroke:#181818;stroke-width:0.5;"/><text fill="#000000" font-family="sans-serif" font-size="14" lengthAdjust="spacing" textLength="383.6533" x="267.2789" y="936.8696">&#1055;&#1086;&#1083;&#1091;&#1095;&#1080;&#1090;&#1100; &#1086;&#1090;&#1095;&#1105;&#1090; &#1087;&#1086; &#1082;&#1086;&#1083;&#1080;&#1095;&#1077;&#1089;&#1090;&#1074;&#1091; &#1080; &#1074;&#1088;&#1077;&#1084;&#1077;&#1085;&#1080; &#1088;&#1077;&#1084;&#1086;&#1085;&#1090;&#1086;&#1074;</text></g><!--entity UC10--><g class="entity" data-entity="UC10" data-source-line="22" data-uid="ent0019" id="entity_UC10"><ellipse cx="459.2388" cy="526.9478" fill="#F1F1F1" rx="140.2388" ry="30.4478" style="stroke:#181818;stroke-width:0.5;"/><text fill="#000000" font-family="sans-serif" font-size="14" lengthAdjust="spacing" textLength="262.1035" x="328.187" y="531.5962">&#1055;&#1086;&#1083;&#1091;&#1095;&#1080;&#1090;&#1100; &#1086;&#1090;&#1095;&#1105;&#1090; &#1087;&#1086; &#1088;&#1072;&#1073;&#1086;&#1090;&#1077; &#1073;&#1088;&#1080;&#1075;&#1072;&#1076;&#1099;</text></g><!--entity UC11--><g class="entity" data-entity="UC11" data-source-line="23" data-uid="ent0020" id="entity_UC11"><ellipse cx="459.0509" cy="1044.1102" fill="#F1F1F1" rx="163.5509" ry="35.1102" style="stroke:#181818;stroke-width:0.5;"/><text fill="#000000" font-family="sans-serif" font-size="14" lengthAdjust="spacing" textLength="310.5908" x="303.7555" y="1048.7586">&#1055;&#1086;&#1083;&#1091;&#1095;&#1080;&#1090;&#1100; &#1086;&#1090;&#1095;&#1105;&#1090; &#1087;&#1086; &#1086;&#1090;&#1088;&#1072;&#1073;&#1086;&#1090;&#1072;&#1085;&#1085;&#1099;&#1084; &#1089;&#1084;&#1077;&#1085;&#1072;&#1084;</text></g><!--entity UC12--><g class="entity" data-entity="UC12" data-source-line="24" data-uid="ent0021" id="entity_UC12"><ellipse cx="458.8129" cy="1144.7626" fill="#F1F1F1" rx="141.8129" ry="30.7626" style="stroke:#181818;stroke-width:0.5;"/><text fill="#000000" font-family="sans-serif" font-size="14" lengthAdjust="spacing" textLength="265.3984" x="326.1136" y="1149.411">&#1059;&#1087;&#1088;&#1072;&#1074;&#1083;&#1103;&#1090;&#1100; &#1076;&#1072;&#1085;&#1085;&#1099;&#1084;&#1080; &#1088;&#1077;&#1084;&#1086;&#1085;&#1090;&#1085;&#1099;&#1093; &#1079;&#1086;&#1085;</text></g><!--entity UC13--><g class="entity" data-entity="UC13" data-source-line="25" data-uid="ent0022" id="entity_UC13"><ellipse cx="459.0351" cy="1243.207" fill="#F1F1F1" rx="146.5351" ry="31.707" style="stroke:#181818;stroke-width:0.5;"/><text fill="#000000" font-family="sans-serif" font-size="14" lengthAdjust="spacing" textLength="275.2627" x="321.4037" y="1247.8554">&#1059;&#1087;&#1088;&#1072;&#1074;&#1083;&#1103;&#1090;&#1100; &#1076;&#1072;&#1085;&#1085;&#1099;&#1084;&#1080; &#1088;&#1077;&#1084;&#1086;&#1085;&#1090;&#1085;&#1099;&#1093; &#1084;&#1077;&#1089;&#1090;</text></g><!--entity UC14--><g class="entity" data-entity="UC14" data-source-line="26" data-uid="ent0023" id="entity_UC14"><ellipse cx="458.8039" cy="1342.8608" fill="#F1F1F1" rx="154.8039" ry="33.3608" style="stroke:#181818;stroke-width:0.5;"/><text fill="#000000" font-family="sans-serif" font-size="14" lengthAdjust="spacing" textLength="292.4688" x="312.5695" y="1347.5092">&#1059;&#1087;&#1088;&#1072;&#1074;&#1083;&#1103;&#1090;&#1100; &#1076;&#1072;&#1085;&#1085;&#1099;&#1084;&#1080; &#1088;&#1077;&#1084;&#1086;&#1085;&#1090;&#1085;&#1099;&#1093; &#1073;&#1088;&#1080;&#1075;&#1072;&#1076;</text></g><!--entity UC15--><g class="entity" data-entity="UC15" data-source-line="27" data-uid="ent0024" id="entity_UC15"><ellipse cx="921.7447" cy="392.1489" fill="#F1F1F1" rx="138.7447" ry="30.1489" style="stroke:#181818;stroke-width:0.5;"/><text fill="#000000" font-family="sans-serif" font-size="14" lengthAdjust="spacing" textLength="258.9727" x="792.2584" y="396.7974">&#1054;&#1090;&#1084;&#1077;&#1090;&#1080;&#1090;&#1100; &#1084;&#1077;&#1089;&#1090;&#1086; &#1076;&#1077;&#1092;&#1077;&#1082;&#1090;&#1072; &#1085;&#1072; &#1089;&#1093;&#1077;&#1084;&#1077;</text></g><!--entity UC16--><g class="entity" data-entity="UC16" data-source-line="28" data-uid="ent0025" id="entity_UC16"><ellipse cx="921.7068" cy="302.9414" fill="#F1F1F1" rx="107.7068" ry="23.9414" style="stroke:#181818;stroke-width:0.5;"/><text fill="#000000" font-family="sans-serif" font-size="14" lengthAdjust="spacing" textLength="192.9102" x="825.2517" y="307.5898">&#1059;&#1082;&#1072;&#1079;&#1072;&#1090;&#1100; &#1087;&#1088;&#1080;&#1095;&#1080;&#1085;&#1091; &#1076;&#1077;&#1092;&#1077;&#1082;&#1090;&#1072;</text></g><!--entity Mechanic--><g class="entity" data-entity="Mechanic" data-source-line="4" data-uid="ent0002" id="entity_Mechanic"><ellipse cx="101.5996" cy="182.5" fill="#F1F1F1" rx="8" ry="8" style="stroke:#181818;stroke-width:0.5;"/><path d="M101.5996,190.5 L101.5996,217.5 M88.5996,198.5 L114.5996,198.5 M101.5996,217.5 L88.5996,232.5 M101.5996,217.5 L114.5996,232.5" fill="none" style="stroke:#181818;stroke-width:0.5;"/><text fill="#000000" font-family="sans-serif" font-size="14" lengthAdjust="spacing" textLength="80.1992" x="61.5" y="246.9951">&#1056;&#1077;&#1084;&#1086;&#1085;&#1090;&#1085;&#1080;&#1082;</text></g><!--entity Foreman--><g class="entity" data-entity="Foreman" data-source-line="5" data-uid="ent0003" id="entity_Foreman"><ellipse cx="101.5947" cy="406.5" fill="#F1F1F1" rx="8" ry="8" style="stroke:#181818;stroke-width:0.5;"/><path d="M101.5947,414.5 L101.5947,441.5 M88.5947,422.5 L114.5947,422.5 M101.5947,441.5 L88.5947,456.5 M101.5947,441.5 L114.5947,456.5" fill="none" style="stroke:#181818;stroke-width:0.5;"/><text fill="#000000" font-family="sans-serif" font-size="14" lengthAdjust="spacing" textLength="71.1895" x="66" y="470.9951">&#1041;&#1088;&#1080;&#1075;&#1072;&#1076;&#1080;&#1088;</text></g><!--entity Dispatcher--><g class="entity" data-entity="Dispatcher" data-source-line="6" data-uid="ent0004" id="entity_Dispatcher"><ellipse cx="101.7134" cy="654.5" fill="#F1F1F1" rx="8" ry="8" style="stroke:#181818;stroke-width:0.5;"/><path d="M101.7134,662.5 L101.7134,689.5 M88.7134,670.5 L114.7134,670.5 M101.7134,689.5 L88.7134,704.5 M101.7134,689.5 L114.7134,704.5" fill="none" style="stroke:#181818;stroke-width:0.5;"/><text fill="#000000" font-family="sans-serif" font-size="14" lengthAdjust="spacing" textLength="79.4268" x="62" y="718.9951">&#1044;&#1080;&#1089;&#1087;&#1077;&#1090;&#1095;&#1077;&#1088;</text></g><!--entity QC--><g class="entity" data-entity="QC" data-source-line="7" data-uid="ent0005" id="entity_QC"><ellipse cx="101.5356" cy="791.5" fill="#F1F1F1" rx="8" ry="8" style="stroke:#181818;stroke-width:0.5;"/><path d="M101.5356,799.5 L101.5356,826.5 M88.5356,807.5 L114.5356,807.5 M101.5356,826.5 L88.5356,841.5 M101.5356,826.5 L114.5356,841.5" fill="none" style="stroke:#181818;stroke-width:0.5;"/><text fill="#000000" font-family="sans-serif" font-size="14" lengthAdjust="spacing" textLength="191.0713" x="6" y="855.9951">&#1054;&#1090;&#1076;&#1077;&#1083; &#1082;&#1086;&#1085;&#1090;&#1088;&#1086;&#1083;&#1103; &#1082;&#1072;&#1095;&#1077;&#1089;&#1090;&#1074;&#1072;</text></g><!--entity ShopManager--><g class="entity" data-entity="ShopManager" data-source-line="8" data-uid="ent0006" id="entity_ShopManager"><ellipse cx="101.6606" cy="902.5" fill="#F1F1F1" rx="8" ry="8" style="stroke:#181818;stroke-width:0.5;"/><path d="M101.6606,910.5 L101.6606,937.5 M88.6606,918.5 L114.6606,918.5 M101.6606,937.5 L88.6606,952.5 M101.6606,937.5 L114.6606,952.5" fill="none" style="stroke:#181818;stroke-width:0.5;"/><text fill="#000000" font-family="sans-serif" font-size="14" lengthAdjust="spacing" textLength="119.3213" x="42" y="966.9951">&#1053;&#1072;&#1095;&#1072;&#1083;&#1100;&#1085;&#1080;&#1082; &#1094;&#1077;&#1093;&#1072;</text></g><!--entity Accounting--><g class="entity" data-entity="Accounting" data-source-line="9" data-uid="ent0007" id="entity_Accounting"><ellipse cx="101.6167" cy="1014.5" fill="#F1F1F1" rx="8" ry="8" style="stroke:#181818;stroke-width:0.5;"/><path d="M101.6167,1022.5 L101.6167,1049.5 M88.6167,1030.5 L114.6167,1030.5 M101.6167,1049.5 L88.6167,1064.5 M101.6167,1049.5 L114.6167,1064.5" fill="none" style="stroke:#181818;stroke-width:0.5;"/><text fill="#000000" font-family="sans-serif" font-size="14" lengthAdjust="spacing" textLength="94.2334" x="54.5" y="1078.9951">&#1041;&#1091;&#1093;&#1075;&#1072;&#1083;&#1090;&#1077;&#1088;&#1080;&#1103;</text></g><!--entity Admin--><g class="entity" data-entity="Admin" data-source-line="10" data-uid="ent0008" id="entity_Admin"><ellipse cx="101.7109" cy="1213.5" fill="#F1F1F1" rx="8" ry="8" style="stroke:#181818;stroke-width:0.5;"/><path d="M101.7109,1221.5 L101.7109,1248.5 M88.7109,1229.5 L114.7109,1229.5 M101.7109,1248.5 L88.7109,1263.5 M101.7109,1248.5 L114.7109,1263.5" fill="none" style="stroke:#181818;stroke-width:0.5;"/><text fill="#000000" font-family="sans-serif" font-size="14" lengthAdjust="spacing" textLength="183.4219" x="10" y="1277.9951">&#1040;&#1076;&#1084;&#1080;&#1085;&#1080;&#1089;&#1090;&#1088;&#1072;&#1090;&#1086;&#1088; &#1089;&#1080;&#1089;&#1090;&#1077;&#1084;&#1099;</text></g><!--link Mechanic to UC1--><g class="link" data-entity-1="Mechanic" data-entity-2="UC1" data-source-line="31" data-uid="lnk26" id="link_Mechanic_UC1"><path d="M141.56,217.38 C188.55,223.86 263.6961,234.2213 332.0161,243.6313" fill="none" id="Mechanic-to-UC1" style="stroke:#181818;stroke-width:1;"/><polygon fill="#181818" points="337.96,244.45,329.59,239.2594,333.0068,243.7678,328.4984,247.1846,337.96,244.45" style="stroke:#181818;stroke-width:1;"/></g><!--link Mechanic to UC2--><g class="link" data-entity-1="Mechanic" data-entity-2="UC2" data-source-line="32" data-uid="lnk27" id="link_Mechanic_UC2"><path d="M141.69,247.67 C166.87,268.69 201.28,294.01 236,309 C274.26,325.52 313.0709,334.6503 352.3309,340.7403" fill="none" id="Mechanic-to-UC2" style="stroke:#181818;stroke-width:1;"/><polygon fill="#181818" points="358.26,341.66,349.9795,336.3277,353.3191,340.8936,348.7532,344.2331,358.26,341.66" style="stroke:#181818;stroke-width:1;"/></g><!--link Mechanic to UC3--><g class="link" data-entity-1="Mechanic" data-entity-2="UC3" data-source-line="33" data-uid="lnk28" id="link_Mechanic_UC3"><path d="M141.55,177.15 C166.82,156.39 201.37,131.21 236,116 C270.42,100.88 304.156,91.7627 340.326,84.8727" fill="none" id="Mechanic-to-UC3" style="stroke:#181818;stroke-width:1;"/><polygon fill="#181818" points="346.22,83.75,336.6305,81.5048,341.3083,84.6856,338.1275,89.3635,346.22,83.75" style="stroke:#181818;stroke-width:1;"/></g><!--link Mechanic to UC4--><g class="link" data-entity-1="Mechanic" data-entity-2="UC4" data-source-line="34" data-uid="lnk29" id="link_Mechanic_UC4"><path d="M141.56,206.73 C188.73,200.36 264.314,190.153 332.804,180.903" fill="none" id="Mechanic-to-UC4" style="stroke:#181818;stroke-width:1;"/><polygon fill="#181818" points="338.75,180.1,329.2956,177.3406,333.795,180.7692,330.3663,185.2686,338.75,180.1" style="stroke:#181818;stroke-width:1;"/></g><!--link Foreman to UC5--><g class="link" data-entity-1="Foreman" data-entity-2="UC5" data-source-line="36" data-uid="lnk30" id="link_Foreman_UC5"><path d="M137.23,436 C184.49,436 265.35,436 336.77,436" fill="none" id="Foreman-to-UC5" style="stroke:#181818;stroke-width:1;"/><polygon fill="#181818" points="342.77,436,333.77,432,337.77,436,333.77,440,342.77,436" style="stroke:#181818;stroke-width:1;"/></g><!--link Foreman to UC10--><g class="link" data-entity-1="Foreman" data-entity-2="UC10" data-source-line="37" data-uid="lnk31" id="link_Foreman_UC10"><path d="M137.08,448.17 C163.86,457.35 202.02,469.88 236,479 C274.27,489.27 310.8387,497.6439 348.2687,505.5239" fill="none" id="Foreman-to-UC10" style="stroke:#181818;stroke-width:1;"/><polygon fill="#181818" points="354.14,506.76,346.1571,500.9917,349.2473,505.7299,344.509,508.8201,354.14,506.76" style="stroke:#181818;stroke-width:1;"/></g><!--link Foreman to UC2--><g class="link" data-entity-1="Foreman" data-entity-2="UC2" data-source-line="38" data-uid="lnk32" id="link_Foreman_UC2"><path d="M137.01,423.57 C163.76,414.26 201.9,401.68 236,393 C279.81,381.85 323.2605,373.2584 364.2905,366.0484" fill="none" id="Foreman-to-UC2" style="stroke:#181818;stroke-width:1;"/><polygon fill="#181818" points="370.2,365.01,360.6435,362.628,365.2755,365.8754,362.0281,370.5073,370.2,365.01" style="stroke:#181818;stroke-width:1;"/></g><!--link Dispatcher to UC6--><g class="link" data-entity-1="Dispatcher" data-entity-2="UC6" data-source-line="40" data-uid="lnk33" id="link_Dispatcher_UC6"><path d="M141.22,688.9 C187.56,694.77 261.4574,704.1274 329.3974,712.7174" fill="none" id="Dispatcher-to-UC6" style="stroke:#181818;stroke-width:1;"/><polygon fill="#181818" points="335.35,713.47,326.9228,708.3727,330.3895,712.8428,325.9193,716.3095,335.35,713.47" style="stroke:#181818;stroke-width:1;"/></g><!--link Dispatcher to UC7--><g class="link" data-entity-1="Dispatcher" data-entity-2="UC7" data-source-line="41" data-uid="lnk34" id="link_Dispatcher_UC7"><path d="M141.22,677.9 C185.67,670.9 255.0331,659.9737 321.0531,649.5737" fill="none" id="Dispatcher-to-UC7" style="stroke:#181818;stroke-width:1;"/><polygon fill="#181818" points="326.98,648.64,317.4672,646.0892,322.0409,649.418,318.7121,653.9918,326.98,648.64" style="stroke:#181818;stroke-width:1;"/></g><!--link QC to UC8--><g class="link" data-entity-1="QC" data-entity-2="UC8" data-source-line="43" data-uid="lnk35" id="link_QC_UC8"><path d="M197.3,822.07 C235.56,822.5 274.4204,822.9323 316.0504,823.4023" fill="none" id="QC-to-UC8" style="stroke:#181818;stroke-width:1;"/><polygon fill="#181818" points="322.05,823.47,313.0957,819.3687,317.0503,823.4136,313.0054,827.3681,322.05,823.47" style="stroke:#181818;stroke-width:1;"/></g><!--link ShopManager to UC9--><g class="link" data-entity-1="ShopManager" data-entity-2="UC9" data-source-line="45" data-uid="lnk36" id="link_ShopManager_UC9"><path d="M161.2,932 C188.91,932 217.76,932 253.75,932" fill="none" id="ShopManager-to-UC9" style="stroke:#181818;stroke-width:1;"/><polygon fill="#181818" points="259.75,932,250.75,928,254.75,932,250.75,936,259.75,932" style="stroke:#181818;stroke-width:1;"/></g><!--link Accounting to UC11--><g class="link" data-entity-1="Accounting" data-entity-2="UC11" data-source-line="47" data-uid="lnk37" id="link_Accounting_UC11"><path d="M148.61,1044 C186.19,1044 235.61,1044 289.21,1044" fill="none" id="Accounting-to-UC11" style="stroke:#181818;stroke-width:1;"/><polygon fill="#181818" points="295.21,1044,286.21,1040,290.21,1044,286.21,1048,295.21,1044" style="stroke:#181818;stroke-width:1;"/></g><!--link Admin to UC12--><g class="link" data-entity-1="Admin" data-entity-2="UC12" data-source-line="49" data-uid="lnk38" id="link_Admin_UC12"><path d="M193.16,1207.87 C207.39,1202.9 222.02,1198.09 236,1194 C273.31,1183.09 308.9126,1174.5746 345.8126,1166.6846" fill="none" id="Admin-to-UC12" style="stroke:#181818;stroke-width:1;"/><polygon fill="#181818" points="351.68,1165.43,342.0426,1163.4003,346.7905,1166.4755,343.7153,1171.2234,351.68,1165.43" style="stroke:#181818;stroke-width:1;"/></g><!--link Admin to UC13--><g class="link" data-entity-1="Admin" data-entity-2="UC13" data-source-line="50" data-uid="lnk39" id="link_Admin_UC13"><path d="M193.13,1243 C229.33,1243 265.95,1243 306.28,1243" fill="none" id="Admin-to-UC13" style="stroke:#181818;stroke-width:1;"/><polygon fill="#181818" points="312.28,1243,303.28,1239,307.28,1243,303.28,1247,312.28,1243" style="stroke:#181818;stroke-width:1;"/></g><!--link Admin to UC14--><g class="link" data-entity-1="Admin" data-entity-2="UC14" data-source-line="51" data-uid="lnk40" id="link_Admin_UC14"><path d="M193.19,1278.02 C207.42,1283.01 222.04,1287.85 236,1292 C271.35,1302.5 304.5471,1310.7995 339.9171,1318.7795" fill="none" id="Admin-to-UC14" style="stroke:#181818;stroke-width:1;"/><polygon fill="#181818" points="345.77,1320.1,337.871,1314.2173,340.8926,1318.9996,336.1103,1322.0212,345.77,1320.1" style="stroke:#181818;stroke-width:1;"/></g><!--link UC2 to UC15--><g class="link" data-entity-1="UC2" data-entity-2="UC15" data-source-line="53" data-uid="lnk41" id="link_UC2_UC15"><path d="M551.65,363.66 C593.21,369.04 643.01,374.98 688,379 C719.61,381.82 747.71,383.7945 779.78,385.6445" fill="none" id="UC2-to-UC15" style="stroke:#181818;stroke-width:1;stroke-dasharray:7.0,7.0;"/><polygon fill="#181818" points="785.77,385.99,777.0153,381.4783,780.7783,385.702,776.5546,389.465,785.77,385.99" style="stroke:#181818;stroke-width:1;"/><text fill="#000000" font-family="sans-serif" font-size="13" lengthAdjust="spacing" textLength="63.0068" x="689" y="375.0669">&#171;include&#187;</text></g><!--link UC2 to UC16--><g class="link" data-entity-1="UC2" data-entity-2="UC16" data-source-line="54" data-uid="lnk42" id="link_UC2_UC16"><path d="M557.94,340.79 C636.37,332.62 739.8423,321.8321 817.9223,313.6921" fill="none" id="UC2-to-UC16" style="stroke:#181818;stroke-width:1;stroke-dasharray:7.0,7.0;"/><polygon fill="#181818" points="823.89,313.07,814.5238,310.0248,818.917,313.5885,815.3533,317.9816,823.89,313.07" style="stroke:#181818;stroke-width:1;"/><text fill="#000000" font-family="sans-serif" font-size="13" lengthAdjust="spacing" textLength="63.0068" x="689" y="318.0669">&#171;include&#187;</text></g><!--SRC=[fLNDJjj04BxlKuouWqf20bG8gQBgZGD2VG3Bk8b5S2B77AggKX93Sm2L8bNggN_g2pY1g6b-p2lilb5dnhjErg2gY8lbdPzllldRRNXl8eYQ4FgrUWH7VkYvaTyCHFlO3rfEw9n0ot6FdPft6BrjU41g9wWrF24SDsg6i29_o96SoLJELK_EvLXELi1fmxxdrft0TtEpQzL1vOrCvAqSgmuRlMg6teaJv3QVKTELTtAaUggFtypgfTzkEP5RzyBSy1l6kiMuKv2JB3IYftAghaYGi7CNROOoOOY3lTprAwiJjBtCw8BwWDRdslAmtcpjEm4c72vHZr5_mquzeeKqhzZwXUisJuF83sgvyISaDaFSEUN2l19qIbK7C3KMKRtKHUP_TE87GkHLHV-V2oEP04Rkgsiy9a09gpEKJmXF3bVWdG0uRNkkqoR7BnYeW-gRFF2OYp8a0keIPLbnC6E4IjacncBFrONymsnUxwq_1j5Yf05Azm3EgCQSkkKwDssGAN0GCqA9HYh_BrAgHu3GgA6ZX_4sB3oS0lbRanWpph8J7H8vm2BrkLcnngXO6D-91_919oxEACEXvX6rM7Lj9bXeTGuO5eyQi7gFr1s77cfIzClT9em19ZSbuR286wkF6ZUdkcbJvUM85ybsCKIA_UFc0oV0SmOu42bmKYCipqYZRVqJhUZE3PcYCbz35OCS8t7Dcw37TX8yq1nh-r6nyaxXne0SB2uPlM4uqyyUHpvhfW6bcQ8YpHP5IUJCGDlxyYll7bv4PaDoW6B63up3UkdfUBEivWQn_7J4fQ8QL7kPw3Qci3rJKis1ghbyQIMyzhGXvzaO6BXAWUI4jrFlzntVEtswKccCB403K1NlXJ1F3gokxl9TLX2KYe9oKR0XX7wIjA1IEECisOAI48ldISkgzqMRGXpiwVyj8POU6ItS5cBnbfXWwoYa1yASI_QnR1-HFFA1jJK-LU0vxEpuWTiuFV9sTvTLLLlr5m00]--></g></svg>