<svg xmlns="http://www.w3.org/2000/svg" xmlns:xlink="http://www.w3.org/1999/xlink" contentStyleType="text/css" data-diagram-type="ACTIVITY" height="1160px" preserveAspectRatio="none" style="width:1679px;height:1160px;background:#FFFFFF;" version="1.1" viewBox="0 0 1679 1160" width="1679px" zoomAndPan="magnify"><defs/><g><rect fill="none" height="20.9531" style="stroke:none;stroke-width:1;" width="1646.3921" x="15" y="12.7451"/><ellipse cx="93.0889" cy="48.6982" fill="#222222" rx="10" ry="10" style="stroke:#222222;stroke-width:1;"/><rect fill="#F1F1F1" height="33.9688" rx="12.5" ry="12.5" style="stroke:#181818;stroke-width:0.5;" width="144.1777" x="21" y="78.6982"/><text fill="#000000" font-family="sans-serif" font-size="12" lengthAdjust="spacing" textLength="124.1777" x="31" y="99.8369">&#1054;&#1073;&#1085;&#1072;&#1088;&#1091;&#1078;&#1077;&#1085; &#1076;&#1077;&#1092;&#1077;&#1082;&#1090;</text><line style="stroke:#000000;stroke-width:1.5;" x1="15" x2="15" y1="12.7451" y2="1148.1357"/><rect fill="#F1F1F1" height="33.9688" rx="12.5" ry="12.5" style="stroke:#181818;stroke-width:0.5;" width="217.6836" x="398.9521" y="132.667"/><text fill="#000000" font-family="sans-serif" font-size="12" lengthAdjust="spacing" textLength="197.6836" x="408.9521" y="153.8057">&#1057;&#1085;&#1103;&#1090;&#1100; &#1072;&#1074;&#1090;&#1086;&#1084;&#1086;&#1073;&#1080;&#1083;&#1100; &#1089; &#1082;&#1086;&#1085;&#1074;&#1077;&#1081;&#1077;&#1088;&#1072;</text><rect fill="#F1F1F1" height="33.9688" rx="12.5" ry="12.5" style="stroke:#181818;stroke-width:0.5;" width="375.9863" x="319.8008" y="186.6357"/><text fill="#000000" font-family="sans-serif" font-size="12" lengthAdjust="spacing" textLength="355.9863" x="329.8008" y="207.7744">&#1055;&#1088;&#1086;&#1074;&#1077;&#1088;&#1080;&#1090;&#1100; &#1085;&#1072;&#1083;&#1080;&#1095;&#1080;&#1077; &#1089;&#1074;&#1086;&#1073;&#1086;&#1076;&#1085;&#1099;&#1093; &#1084;&#1077;&#1089;&#1090; &#1074; &#1088;&#1077;&#1084;&#1086;&#1085;&#1090;&#1085;&#1099;&#1093; &#1079;&#1086;&#1085;&#1072;&#1093;</text><polygon fill="#F1F1F1" points="440.7734,240.6045,574.8145,240.6045,586.8145,252.6045,574.8145,264.6045,440.7734,264.6045,428.7734,252.6045,440.7734,240.6045" style="stroke:#181818;stroke-width:0.5;"/><text fill="#000000" font-family="sans-serif" font-size="11" lengthAdjust="spacing" textLength="134.041" x="440.7734" y="256.4126">&#1045;&#1089;&#1090;&#1100; &#1089;&#1074;&#1086;&#1073;&#1086;&#1076;&#1085;&#1086;&#1077; &#1084;&#1077;&#1089;&#1090;&#1086;?</text><text fill="#000000" font-family="sans-serif" font-size="11" lengthAdjust="spacing" textLength="14.3462" x="414.4272" y="250.0103">&#1076;&#1072;</text><text fill="#000000" font-family="sans-serif" font-size="11" lengthAdjust="spacing" textLength="20.3672" x="586.8145" y="250.0103">&#1085;&#1077;&#1090;</text><rect fill="#F1F1F1" height="33.9688" rx="12.5" ry="12.5" style="stroke:#181818;stroke-width:0.5;" width="358.4141" x="175.1777" y="274.6045"/><text fill="#000000" font-family="sans-serif" font-size="12" lengthAdjust="spacing" textLength="338.4141" x="185.1777" y="295.7432">&#1053;&#1072;&#1087;&#1088;&#1072;&#1074;&#1080;&#1090;&#1100; &#1072;&#1074;&#1090;&#1086;&#1084;&#1086;&#1073;&#1080;&#1083;&#1100; &#1074; &#1089;&#1074;&#1086;&#1073;&#1086;&#1076;&#1085;&#1091;&#1102; &#1088;&#1077;&#1084;&#1086;&#1085;&#1090;&#1085;&#1091;&#1102; &#1079;&#1086;&#1085;&#1091;</text><rect fill="#F1F1F1" height="33.9688" rx="12.5" ry="12.5" style="stroke:#181818;stroke-width:0.5;" width="215.2227" x="553.5918" y="274.6045"/><text fill="#000000" font-family="sans-serif" font-size="12" lengthAdjust="spacing" textLength="195.2227" x="563.5918" y="295.7432">&#1054;&#1078;&#1080;&#1076;&#1072;&#1090;&#1100; &#1086;&#1089;&#1074;&#1086;&#1073;&#1086;&#1078;&#1076;&#1077;&#1085;&#1080;&#1103; &#1084;&#1077;&#1089;&#1090;&#1072;</text><ellipse cx="661.2031" cy="339.5732" fill="none" rx="11" ry="11" style="stroke:#222222;stroke-width:1;"/><ellipse cx="661.2031" cy="339.5732" fill="#222222" rx="6" ry="6" style="stroke:#222222;stroke-width:1;"/><rect fill="#F1F1F1" height="33.9688" rx="12.5" ry="12.5" style="stroke:#181818;stroke-width:0.5;" width="369.0898" x="323.249" y="1018.1982"/><text fill="#000000" font-family="sans-serif" font-size="12" lengthAdjust="spacing" textLength="349.0898" x="333.249" y="1039.3369">&#1042;&#1077;&#1088;&#1085;&#1091;&#1090;&#1100; &#1072;&#1074;&#1090;&#1086;&#1084;&#1086;&#1073;&#1080;&#1083;&#1100; &#1085;&#1072; &#1082;&#1086;&#1085;&#1074;&#1077;&#1081;&#1077;&#1088;/&#1074; &#1079;&#1086;&#1085;&#1091; &#1090;&#1077;&#1089;&#1090;&#1080;&#1088;&#1086;&#1074;&#1072;&#1085;&#1080;&#1103;</text><line style="stroke:#000000;stroke-width:1.5;" x1="169.1777" x2="169.1777" y1="12.7451" y2="1148.1357"/><rect fill="#F1F1F1" height="33.9688" rx="12.5" ry="12.5" style="stroke:#181818;stroke-width:0.5;" width="285.2715" x="813.7568" y="370.5732"/><text fill="#000000" font-family="sans-serif" font-size="12" lengthAdjust="spacing" textLength="265.2715" x="823.7568" y="391.7119">&#1042;&#1099;&#1087;&#1086;&#1083;&#1085;&#1080;&#1090;&#1100; &#1087;&#1077;&#1088;&#1074;&#1086;&#1085;&#1072;&#1095;&#1072;&#1083;&#1100;&#1085;&#1091;&#1102; &#1076;&#1080;&#1072;&#1075;&#1085;&#1086;&#1089;&#1090;&#1080;&#1082;&#1091;</text><rect fill="#F1F1F1" height="33.9688" rx="12.5" ry="12.5" style="stroke:#181818;stroke-width:0.5;" width="254.4805" x="829.1523" y="424.542"/><text fill="#000000" font-family="sans-serif" font-size="12" lengthAdjust="spacing" textLength="234.4805" x="839.1523" y="445.6807">&#1047;&#1072;&#1088;&#1077;&#1075;&#1080;&#1089;&#1090;&#1088;&#1080;&#1088;&#1086;&#1074;&#1072;&#1090;&#1100; &#1076;&#1077;&#1092;&#1077;&#1082;&#1090; &#1074; &#1089;&#1080;&#1089;&#1090;&#1077;&#1084;&#1077;</text><rect fill="#F1F1F1" height="33.9688" rx="12.5" ry="12.5" style="stroke:#181818;stroke-width:0.5;" width="321.0313" x="795.877" y="478.5107"/><text fill="#000000" font-family="sans-serif" font-size="12" lengthAdjust="spacing" textLength="301.0313" x="805.877" y="499.6494">&#1054;&#1090;&#1084;&#1077;&#1090;&#1080;&#1090;&#1100; &#1084;&#1077;&#1089;&#1090;&#1086; &#1076;&#1077;&#1092;&#1077;&#1082;&#1090;&#1072; &#1085;&#1072; &#1089;&#1093;&#1077;&#1084;&#1077; &#1072;&#1074;&#1090;&#1086;&#1084;&#1086;&#1073;&#1080;&#1083;&#1103;</text><rect fill="#F1F1F1" height="33.9688" rx="12.5" ry="12.5" style="stroke:#181818;stroke-width:0.5;" width="262.2148" x="825.2852" y="532.4795"/><text fill="#000000" font-family="sans-serif" font-size="12" lengthAdjust="spacing" textLength="242.2148" x="835.2852" y="553.6182">&#1059;&#1082;&#1072;&#1079;&#1072;&#1090;&#1100; &#1074;&#1086;&#1079;&#1084;&#1086;&#1078;&#1085;&#1091;&#1102; &#1087;&#1088;&#1080;&#1095;&#1080;&#1085;&#1091; &#1076;&#1077;&#1092;&#1077;&#1082;&#1090;&#1072;</text><rect fill="#F1F1F1" height="33.9688" rx="12.5" ry="12.5" style="stroke:#181818;stroke-width:0.5;" width="317.5801" x="797.6025" y="586.4482"/><text fill="#000000" font-family="sans-serif" font-size="12" lengthAdjust="spacing" textLength="297.5801" x="807.6025" y="607.5869">&#1042;&#1085;&#1077;&#1089;&#1090;&#1080; &#1085;&#1086;&#1084;&#1077;&#1088; &#1072;&#1074;&#1090;&#1086;&#1084;&#1086;&#1073;&#1080;&#1083;&#1103; &#1080; &#1076;&#1072;&#1090;&#1091; &#1087;&#1086;&#1089;&#1090;&#1091;&#1087;&#1083;&#1077;&#1085;&#1080;&#1103;</text><rect fill="#F1F1F1" height="33.9688" rx="12.5" ry="12.5" style="stroke:#181818;stroke-width:0.5;" width="205.373" x="853.7061" y="748.3545"/><text fill="#000000" font-family="sans-serif" font-size="12" lengthAdjust="spacing" textLength="185.373" x="863.7061" y="769.4932">&#1055;&#1086;&#1083;&#1091;&#1095;&#1080;&#1090;&#1100; &#1079;&#1072;&#1076;&#1072;&#1085;&#1080;&#1077; &#1085;&#1072; &#1088;&#1077;&#1084;&#1086;&#1085;&#1090;</text><rect fill="#F1F1F1" height="33.9688" rx="12.5" ry="12.5" style="stroke:#181818;stroke-width:0.5;" width="177.9688" x="867.4082" y="802.3232"/><text fill="#000000" font-family="sans-serif" font-size="12" lengthAdjust="spacing" textLength="157.9688" x="877.4082" y="823.4619">&#1047;&#1072;&#1085;&#1103;&#1090;&#1100; &#1088;&#1077;&#1084;&#1086;&#1085;&#1090;&#1085;&#1086;&#1077; &#1084;&#1077;&#1089;&#1090;&#1086;</text><rect fill="#F1F1F1" height="33.9688" rx="12.5" ry="12.5" style="stroke:#181818;stroke-width:0.5;" width="332.7383" x="790.0234" y="856.292"/><text fill="#000000" font-family="sans-serif" font-size="12" lengthAdjust="spacing" textLength="312.7383" x="800.0234" y="877.4307">&#1047;&#1072;&#1092;&#1080;&#1082;&#1089;&#1080;&#1088;&#1086;&#1074;&#1072;&#1090;&#1100; &#1074;&#1088;&#1077;&#1084;&#1103; &#1085;&#1072;&#1095;&#1072;&#1083;&#1072; &#1088;&#1077;&#1084;&#1086;&#1085;&#1090;&#1072; &#1074; &#1089;&#1080;&#1089;&#1090;&#1077;&#1084;&#1077;</text><rect fill="#F1F1F1" height="33.9688" rx="12.5" ry="12.5" style="stroke:#181818;stroke-width:0.5;" width="199.0449" x="856.8701" y="910.2607"/><text fill="#000000" font-family="sans-serif" font-size="12" lengthAdjust="spacing" textLength="179.0449" x="866.8701" y="931.3994">&#1042;&#1099;&#1087;&#1086;&#1083;&#1085;&#1080;&#1090;&#1100; &#1088;&#1077;&#1084;&#1086;&#1085;&#1090; &#1076;&#1077;&#1092;&#1077;&#1082;&#1090;&#1072;</text><rect fill="#F1F1F1" height="33.9688" rx="12.5" ry="12.5" style="stroke:#181818;stroke-width:0.5;" width="355.1563" x="778.8145" y="964.2295"/><text fill="#000000" font-family="sans-serif" font-size="12" lengthAdjust="spacing" textLength="335.1563" x="788.8145" y="985.3682">&#1047;&#1072;&#1092;&#1080;&#1082;&#1089;&#1080;&#1088;&#1086;&#1074;&#1072;&#1090;&#1100; &#1074;&#1088;&#1077;&#1084;&#1103; &#1086;&#1082;&#1086;&#1085;&#1095;&#1072;&#1085;&#1080;&#1103; &#1088;&#1077;&#1084;&#1086;&#1085;&#1090;&#1072; &#1074; &#1089;&#1080;&#1089;&#1090;&#1077;&#1084;&#1077;</text><line style="stroke:#000000;stroke-width:1.5;" x1="772.8145" x2="772.8145" y1="12.7451" y2="1148.1357"/><rect fill="#F1F1F1" height="33.9688" rx="12.5" ry="12.5" style="stroke:#181818;stroke-width:0.5;" width="292.4082" x="1143.9707" y="640.417"/><text fill="#000000" font-family="sans-serif" font-size="12" lengthAdjust="spacing" textLength="272.4082" x="1153.9707" y="661.5557">&#1055;&#1088;&#1086;&#1089;&#1084;&#1086;&#1090;&#1088;&#1077;&#1090;&#1100; &#1079;&#1072;&#1088;&#1077;&#1075;&#1080;&#1089;&#1090;&#1088;&#1080;&#1088;&#1086;&#1074;&#1072;&#1085;&#1085;&#1099;&#1081; &#1076;&#1077;&#1092;&#1077;&#1082;&#1090;</text><rect fill="#F1F1F1" height="33.9688" rx="12.5" ry="12.5" style="stroke:#181818;stroke-width:0.5;" width="287.9375" x="1146.2061" y="694.3857"/><text fill="#000000" font-family="sans-serif" font-size="12" lengthAdjust="spacing" textLength="267.9375" x="1156.2061" y="715.5244">&#1053;&#1072;&#1079;&#1085;&#1072;&#1095;&#1080;&#1090;&#1100; &#1088;&#1077;&#1084;&#1086;&#1085;&#1090; &#1082;&#1086;&#1085;&#1082;&#1088;&#1077;&#1090;&#1085;&#1086;&#1084;&#1091; &#1088;&#1072;&#1073;&#1086;&#1095;&#1077;&#1084;&#1091;</text><line style="stroke:#000000;stroke-width:1.5;" x1="1137.9707" x2="1137.9707" y1="12.7451" y2="1148.1357"/><rect fill="#F1F1F1" height="33.9688" rx="12.5" ry="12.5" style="stroke:#181818;stroke-width:0.5;" width="209.1523" x="1446.3789" y="1072.167"/><text fill="#000000" font-family="sans-serif" font-size="12" lengthAdjust="spacing" textLength="189.1523" x="1456.3789" y="1093.3057">&#1054;&#1089;&#1074;&#1086;&#1073;&#1086;&#1076;&#1080;&#1090;&#1100; &#1088;&#1077;&#1084;&#1086;&#1085;&#1090;&#1085;&#1086;&#1077; &#1084;&#1077;&#1089;&#1090;&#1086;</text><ellipse cx="1550.9551" cy="1137.1357" fill="none" rx="11" ry="11" style="stroke:#222222;stroke-width:1;"/><ellipse cx="1550.9551" cy="1137.1357" fill="#222222" rx="6" ry="6" style="stroke:#222222;stroke-width:1;"/><line style="stroke:#000000;stroke-width:1.5;" x1="1440.3789" x2="1440.3789" y1="12.7451" y2="1148.1357"/><line style="stroke:#000000;stroke-width:1.5;" x1="1659.5313" x2="1659.5313" y1="12.7451" y2="1148.1357"/><line style="stroke:#181818;stroke-width:1;" x1="93.0889" x2="93.0889" y1="58.6982" y2="78.6982"/><polygon fill="#181818" points="89.0889,68.6982,93.0889,78.6982,97.0889,68.6982,93.0889,72.6982" style="stroke:#181818;stroke-width:1;"/><line style="stroke:#181818;stroke-width:1;" x1="507.7939" x2="507.7939" y1="166.6357" y2="186.6357"/><polygon fill="#181818" points="503.7939,176.6357,507.7939,186.6357,511.7939,176.6357,507.7939,180.6357" style="stroke:#181818;stroke-width:1;"/><line style="stroke:#181818;stroke-width:1;" x1="661.2031" x2="661.2031" y1="308.5732" y2="328.5732"/><polygon fill="#181818" points="657.2031,318.5732,661.2031,328.5732,665.2031,318.5732,661.2031,322.5732" style="stroke:#181818;stroke-width:1;"/><line style="stroke:#181818;stroke-width:1;" x1="428.7734" x2="354.3848" y1="252.6045" y2="252.6045"/><line style="stroke:#181818;stroke-width:1;" x1="354.3848" x2="354.3848" y1="252.6045" y2="274.6045"/><polygon fill="#181818" points="350.3848,264.6045,354.3848,274.6045,358.3848,264.6045,354.3848,268.6045" style="stroke:#181818;stroke-width:1;"/><line style="stroke:#181818;stroke-width:1;" x1="586.8145" x2="661.2031" y1="252.6045" y2="252.6045"/><line style="stroke:#181818;stroke-width:1;" x1="661.2031" x2="661.2031" y1="252.6045" y2="274.6045"/><polygon fill="#181818" points="657.2031,264.6045,661.2031,274.6045,665.2031,264.6045,661.2031,268.6045" style="stroke:#181818;stroke-width:1;"/><line style="stroke:#181818;stroke-width:1;" x1="354.3848" x2="354.3848" y1="308.5732" y2="355.5732"/><line style="stroke:#181818;stroke-width:1;" x1="354.3848" x2="956.3926" y1="355.5732" y2="355.5732"/><line style="stroke:#181818;stroke-width:1;" x1="956.3926" x2="956.3926" y1="355.5732" y2="370.5732"/><polygon fill="#181818" points="952.3926,360.5732,956.3926,370.5732,960.3926,360.5732,956.3926,364.5732" style="stroke:#181818;stroke-width:1;"/><line style="stroke:#181818;stroke-width:1;" x1="507.7939" x2="507.7939" y1="220.6045" y2="240.6045"/><polygon fill="#181818" points="503.7939,230.6045,507.7939,240.6045,511.7939,230.6045,507.7939,234.6045" style="stroke:#181818;stroke-width:1;"/><line style="stroke:#181818;stroke-width:1;" x1="956.3926" x2="956.3926" y1="404.542" y2="424.542"/><polygon fill="#181818" points="952.3926,414.542,956.3926,424.542,960.3926,414.542,956.3926,418.542" style="stroke:#181818;stroke-width:1;"/><line style="stroke:#181818;stroke-width:1;" x1="956.3926" x2="956.3926" y1="458.5107" y2="478.5107"/><polygon fill="#181818" points="952.3926,468.5107,956.3926,478.5107,960.3926,468.5107,956.3926,472.5107" style="stroke:#181818;stroke-width:1;"/><line style="stroke:#181818;stroke-width:1;" x1="956.3926" x2="956.3926" y1="512.4795" y2="532.4795"/><polygon fill="#181818" points="952.3926,522.4795,956.3926,532.4795,960.3926,522.4795,956.3926,526.4795" style="stroke:#181818;stroke-width:1;"/><line style="stroke:#181818;stroke-width:1;" x1="956.3926" x2="956.3926" y1="566.4482" y2="586.4482"/><polygon fill="#181818" points="952.3926,576.4482,956.3926,586.4482,960.3926,576.4482,956.3926,580.4482" style="stroke:#181818;stroke-width:1;"/><line style="stroke:#181818;stroke-width:1;" x1="956.3926" x2="956.3926" y1="782.3232" y2="802.3232"/><polygon fill="#181818" points="952.3926,792.3232,956.3926,802.3232,960.3926,792.3232,956.3926,796.3232" style="stroke:#181818;stroke-width:1;"/><line style="stroke:#181818;stroke-width:1;" x1="956.3926" x2="956.3926" y1="836.292" y2="856.292"/><polygon fill="#181818" points="952.3926,846.292,956.3926,856.292,960.3926,846.292,956.3926,850.292" style="stroke:#181818;stroke-width:1;"/><line style="stroke:#181818;stroke-width:1;" x1="956.3926" x2="956.3926" y1="890.2607" y2="910.2607"/><polygon fill="#181818" points="952.3926,900.2607,956.3926,910.2607,960.3926,900.2607,956.3926,904.2607" style="stroke:#181818;stroke-width:1;"/><line style="stroke:#181818;stroke-width:1;" x1="956.3926" x2="956.3926" y1="944.2295" y2="964.2295"/><polygon fill="#181818" points="952.3926,954.2295,956.3926,964.2295,960.3926,954.2295,956.3926,958.2295" style="stroke:#181818;stroke-width:1;"/><line style="stroke:#181818;stroke-width:1;" x1="1290.1748" x2="1290.1748" y1="674.3857" y2="694.3857"/><polygon fill="#181818" points="1286.1748,684.3857,1290.1748,694.3857,1294.1748,684.3857,1290.1748,688.3857" style="stroke:#181818;stroke-width:1;"/><line style="stroke:#181818;stroke-width:1;" x1="1550.9551" x2="1550.9551" y1="1106.1357" y2="1126.1357"/><polygon fill="#181818" points="1546.9551,1116.1357,1550.9551,1126.1357,1554.9551,1116.1357,1550.9551,1120.1357" style="stroke:#181818;stroke-width:1;"/><line style="stroke:#181818;stroke-width:1;" x1="93.0889" x2="93.0889" y1="112.667" y2="117.667"/><line style="stroke:#181818;stroke-width:1;" x1="93.0889" x2="507.7939" y1="117.667" y2="117.667"/><line style="stroke:#181818;stroke-width:1;" x1="507.7939" x2="507.7939" y1="117.667" y2="132.667"/><polygon fill="#181818" points="503.7939,122.667,507.7939,132.667,511.7939,122.667,507.7939,126.667" style="stroke:#181818;stroke-width:1;"/><line style="stroke:#181818;stroke-width:1;" x1="956.3926" x2="956.3926" y1="620.417" y2="625.417"/><line style="stroke:#181818;stroke-width:1;" x1="956.3926" x2="1290.1748" y1="625.417" y2="625.417"/><line style="stroke:#181818;stroke-width:1;" x1="1290.1748" x2="1290.1748" y1="625.417" y2="640.417"/><polygon fill="#181818" points="1286.1748,630.417,1290.1748,640.417,1294.1748,630.417,1290.1748,634.417" style="stroke:#181818;stroke-width:1;"/><line style="stroke:#181818;stroke-width:1;" x1="1290.1748" x2="1290.1748" y1="728.3545" y2="733.3545"/><line style="stroke:#181818;stroke-width:1;" x1="1290.1748" x2="956.3926" y1="733.3545" y2="733.3545"/><line style="stroke:#181818;stroke-width:1;" x1="956.3926" x2="956.3926" y1="733.3545" y2="748.3545"/><polygon fill="#181818" points="952.3926,738.3545,956.3926,748.3545,960.3926,738.3545,956.3926,742.3545" style="stroke:#181818;stroke-width:1;"/><line style="stroke:#181818;stroke-width:1;" x1="956.3926" x2="956.3926" y1="998.1982" y2="1003.1982"/><line style="stroke:#181818;stroke-width:1;" x1="956.3926" x2="507.7939" y1="1003.1982" y2="1003.1982"/><line style="stroke:#181818;stroke-width:1;" x1="507.7939" x2="507.7939" y1="1003.1982" y2="1018.1982"/><polygon fill="#181818" points="503.7939,1008.1982,507.7939,1018.1982,511.7939,1008.1982,507.7939,1012.1982" style="stroke:#181818;stroke-width:1;"/><line style="stroke:#181818;stroke-width:1;" x1="507.7939" x2="507.7939" y1="1052.167" y2="1057.167"/><line style="stroke:#181818;stroke-width:1;" x1="507.7939" x2="1550.9551" y1="1057.167" y2="1057.167"/><line style="stroke:#181818;stroke-width:1;" x1="1550.9551" x2="1550.9551" y1="1057.167" y2="1072.167"/><polygon fill="#181818" points="1546.9551,1062.167,1550.9551,1072.167,1554.9551,1062.167,1550.9551,1066.167" style="stroke:#181818;stroke-width:1;"/><text fill="#000000" font-family="sans-serif" font-size="18" lengthAdjust="spacing" textLength="91.4414" x="46.3682" y="29.4531">&#1050;&#1086;&#1085;&#1074;&#1077;&#1081;&#1077;&#1088;</text><text fill="#000000" font-family="sans-serif" font-size="18" lengthAdjust="spacing" textLength="102.1201" x="419.936" y="29.4531">&#1044;&#1080;&#1089;&#1087;&#1077;&#1090;&#1095;&#1077;&#1088;</text><text fill="#000000" font-family="sans-serif" font-size="18" lengthAdjust="spacing" textLength="103.1133" x="903.8359" y="29.4531">&#1056;&#1077;&#1084;&#1086;&#1085;&#1090;&#1085;&#1080;&#1082;</text><text fill="#000000" font-family="sans-serif" font-size="18" lengthAdjust="spacing" textLength="91.5293" x="1243.4102" y="29.4531">&#1041;&#1088;&#1080;&#1075;&#1072;&#1076;&#1080;&#1088;</text><text fill="#000000" font-family="sans-serif" font-size="18" lengthAdjust="spacing" textLength="80.332" x="1509.7891" y="29.4531">&#1057;&#1080;&#1089;&#1090;&#1077;&#1084;&#1072;</text><!--SRC=[ZLJ1Rjf05BpxA_ROd7g7Gx-bKeaQgKghmf43c20EYOgAKbMgLDAeF-0u61nIsx_mtXzbvgrDR0UhEG1clMzcTjwy7SiloIMJM19va4Gdus0uUlzr5FHaBNTu4Ub4PxB5wyp91ZikyBZNi1y4OxcMLATIO3NKXQ_koQrakiJ2bPD8OWs1_m-VEqdb4OiwTR9lSahKHzqD7d8kuZVrzQ2NH_nPe3P19TuIA8UGJ2zrxe2Sw5H39x53MM9C6JZBrpiZYdGEkMUdxetyu6vJKSV2TtB0alpTYHjz79nZ-qQYay2vdlo6ae9AKPPs7uuocYfd-gsjZ4jUcSxwmU3JS02cZ2PwhZNiJadjUV8QufOjmDvKbyzwuPvpmz7dBy7W_CFPAHlpfqu8i3qRiz9Bz2g7erbrXiBSZakN5hHRhog96nH6SazxZ0Sm5DoJdqm56ExPVW2nNxvtfUHQJafBRAE9IeYmnX_A3oiX1-yRnH9P1W2WSrzypFOb4VyYL15SBHNmI3lRiwsEKvXEHWaBBHeYhAm7Tb1daQ2coL52nos-GJEQQFvWJ0fuMxR7vkCxAM5JH2_zT5ZAOGZGpBd4wzrrMmeyf5aUMkFdCxah6-Tjh0UjchAz9_4dWbmBCRB4WUL2lpClDymAlAlGAPAdjXr9sPaQOncDm_WtOz-QiIf75nQhQJj1iI-crOTajkWOZcFPUXdpfYql6lyw6RdtqwJu0Vo_cAuhScLZnrnstoHqjtrHlWL7TNCuqlYurf9I9U-s9YGQsyJLxwNqDGqAUASy0G00]--></g></svg>